<svg width="500" height="500" viewBox="0 0 500 500" fill="none" xmlns="http://www.w3.org/2000/svg">
<path fill-rule="evenodd" clip-rule="evenodd" d="M31 35H37V201.322C43.2904 202.696 48 208.298 48 215C48 221.702 43.2904 227.304 37 228.678V394H31V228.678C24.7096 227.304 20 221.702 20 215C20 208.298 24.7096 202.696 31 201.322V35ZM25 215C25 210.029 29.0294 206 34 206C38.9706 206 43 210.029 43 215C43 219.971 38.9706 224 34 224C29.0294 224 25 219.971 25 215Z" fill="url(#paint0_linear_908_761)"/>
<path fill-rule="evenodd" clip-rule="evenodd" d="M71 135H77V301.322C83.2904 302.696 88 308.298 88 315C88 321.702 83.2904 327.304 77 328.678V494H71V328.678C64.7096 327.304 60 321.702 60 315C60 308.298 64.7096 302.696 71 301.322V135ZM65 315C65 310.029 69.0294 306 74 306C78.9706 306 83 310.029 83 315C83 319.971 78.9706 324 74 324C69.0294 324 65 319.971 65 315Z" fill="url(#paint1_linear_908_761)"/>
<path fill-rule="evenodd" clip-rule="evenodd" d="M205 130H211V296.322C217.29 297.696 222 303.298 222 310C222 316.702 217.29 322.304 211 323.678V489H205V323.678C198.71 322.304 194 316.702 194 310C194 303.298 198.71 297.696 205 296.322V130ZM199 310C199 305.029 203.029 301 208 301C212.971 301 217 305.029 217 310C217 314.971 212.971 319 208 319C203.029 319 199 314.971 199 310Z" fill="url(#paint2_linear_908_761)"/>
<path fill-rule="evenodd" clip-rule="evenodd" d="M259 10H265V176.322C271.29 177.696 276 183.298 276 190C276 196.702 271.29 202.304 265 203.678V369H259V203.678C252.71 202.304 248 196.702 248 190C248 183.298 252.71 177.696 259 176.322V10ZM253 190C253 185.029 257.029 181 262 181C266.971 181 271 185.029 271 190C271 194.971 266.971 199 262 199C257.029 199 253 194.971 253 190Z" fill="url(#paint3_linear_908_761)"/>
<path fill-rule="evenodd" clip-rule="evenodd" d="M304 141H310V307.322C316.29 308.696 321 314.298 321 321C321 327.702 316.29 333.304 310 334.678V500H304V334.678C297.71 333.304 293 327.702 293 321C293 314.298 297.71 308.696 304 307.322V141ZM298 321C298 316.029 302.029 312 307 312C311.971 312 316 316.029 316 321C316 325.971 311.971 330 307 330C302.029 330 298 325.971 298 321Z" fill="url(#paint4_linear_908_761)"/>
<path fill-rule="evenodd" clip-rule="evenodd" d="M349 50H355V216.322C361.29 217.696 366 223.298 366 230C366 236.702 361.29 242.304 355 243.678V409H349V243.678C342.71 242.304 338 236.702 338 230C338 223.298 342.71 217.696 349 216.322V50ZM343 230C343 225.029 347.029 221 352 221C356.971 221 361 225.029 361 230C361 234.971 356.971 239 352 239C347.029 239 343 234.971 343 230Z" fill="url(#paint5_linear_908_761)"/>
<path fill-rule="evenodd" clip-rule="evenodd" d="M403 10H409V176.322C415.29 177.696 420 183.298 420 190C420 196.702 415.29 202.304 409 203.678V369H403V203.678C396.71 202.304 392 196.702 392 190C392 183.298 396.71 177.696 403 176.322V10ZM397 190C397 185.029 401.029 181 406 181C410.971 181 415 185.029 415 190C415 194.971 410.971 199 406 199C401.029 199 397 194.971 397 190Z" fill="url(#paint6_linear_908_761)"/>
<path fill-rule="evenodd" clip-rule="evenodd" d="M457 141H463V307.322C469.29 308.696 474 314.298 474 321C474 327.702 469.29 333.304 463 334.678V500H457V334.678C450.71 333.304 446 327.702 446 321C446 314.298 450.71 308.696 457 307.322V141ZM451 321C451 316.029 455.029 312 460 312C464.971 312 469 316.029 469 321C469 325.971 464.971 330 460 330C455.029 330 451 325.971 451 321Z" fill="url(#paint7_linear_908_761)"/>
<path fill-rule="evenodd" clip-rule="evenodd" d="M111 10H117V176.322C123.29 177.696 128 183.298 128 190C128 196.702 123.29 202.304 117 203.678V369H111V203.678C104.71 202.304 100 196.702 100 190C100 183.298 104.71 177.696 111 176.322V10ZM105 190C105 185.029 109.029 181 114 181C118.971 181 123 185.029 123 190C123 194.971 118.971 199 114 199C109.029 199 105 194.971 105 190Z" fill="url(#paint8_linear_908_761)"/>
<path fill-rule="evenodd" clip-rule="evenodd" d="M151 10H157V243.322C163.29 244.696 168 250.298 168 257C168 263.702 163.29 269.304 157 270.678V494H151V270.678C144.71 269.304 140 263.702 140 257C140 250.298 144.71 244.696 151 243.322V10ZM145 257C145 252.029 149.029 248 154 248C158.971 248 163 252.029 163 257C163 261.971 158.971 266 154 266C149.029 266 145 261.971 145 257Z" fill="url(#paint9_linear_908_761)"/>
<defs>
<linearGradient id="paint0_linear_908_761" x1="34" y1="35" x2="34" y2="394" gradientUnits="userSpaceOnUse">
<stop stop-color="#1CAE56" stop-opacity="0"/>
<stop offset="0.505208" stop-color="#26366C"/>
<stop offset="1" stop-color="#AE1CA0" stop-opacity="0"/>
</linearGradient>
<linearGradient id="paint1_linear_908_761" x1="74" y1="135" x2="74" y2="494" gradientUnits="userSpaceOnUse">
<stop stop-color="#1CAE56" stop-opacity="0"/>
<stop offset="0.505208" stop-color="#26366C"/>
<stop offset="1" stop-color="#AE1CA0" stop-opacity="0"/>
</linearGradient>
<linearGradient id="paint2_linear_908_761" x1="208" y1="130" x2="208" y2="489" gradientUnits="userSpaceOnUse">
<stop stop-color="#1CAE56" stop-opacity="0"/>
<stop offset="0.505208" stop-color="#26366C"/>
<stop offset="1" stop-color="#AE1CA0" stop-opacity="0"/>
</linearGradient>
<linearGradient id="paint3_linear_908_761" x1="262" y1="10" x2="262" y2="369" gradientUnits="userSpaceOnUse">
<stop stop-color="#1CAE56" stop-opacity="0"/>
<stop offset="0.505208" stop-color="#26366C"/>
<stop offset="1" stop-color="#AE1CA0" stop-opacity="0"/>
</linearGradient>
<linearGradient id="paint4_linear_908_761" x1="307" y1="141" x2="307" y2="500" gradientUnits="userSpaceOnUse">
<stop stop-color="#1CAE56" stop-opacity="0"/>
<stop offset="0.505208" stop-color="#26366C"/>
<stop offset="1" stop-color="#AE1CA0" stop-opacity="0"/>
</linearGradient>
<linearGradient id="paint5_linear_908_761" x1="352" y1="50" x2="352" y2="409" gradientUnits="userSpaceOnUse">
<stop stop-color="#1CAE56" stop-opacity="0"/>
<stop offset="0.505208" stop-color="#26366C"/>
<stop offset="1" stop-color="#AE1CA0" stop-opacity="0"/>
</linearGradient>
<linearGradient id="paint6_linear_908_761" x1="406" y1="10" x2="406" y2="369" gradientUnits="userSpaceOnUse">
<stop stop-color="#1CAE56" stop-opacity="0"/>
<stop offset="0.505208" stop-color="#26366C"/>
<stop offset="1" stop-color="#AE1CA0" stop-opacity="0"/>
</linearGradient>
<linearGradient id="paint7_linear_908_761" x1="460" y1="141" x2="460" y2="500" gradientUnits="userSpaceOnUse">
<stop stop-color="#1CAE56" stop-opacity="0"/>
<stop offset="0.505208" stop-color="#26366C"/>
<stop offset="1" stop-color="#AE1CA0" stop-opacity="0"/>
</linearGradient>
<linearGradient id="paint8_linear_908_761" x1="114" y1="10" x2="114" y2="369" gradientUnits="userSpaceOnUse">
<stop stop-color="#1CAE56" stop-opacity="0"/>
<stop offset="0.505208" stop-color="#26366C"/>
<stop offset="1" stop-color="#AE1CA0" stop-opacity="0"/>
</linearGradient>
<linearGradient id="paint9_linear_908_761" x1="154" y1="21" x2="154" y2="468.5" gradientUnits="userSpaceOnUse">
<stop stop-color="#1CAE56" stop-opacity="0"/>
<stop offset="0.505208" stop-color="#26366C"/>
<stop offset="1" stop-color="#AE1CA0" stop-opacity="0"/>
</linearGradient>
</defs>
</svg>
